<!--// width="54px" height="54px" //-->
<svg version="1.1" id="Layer_1" xmlns="http://www.w3.org/2000/svg" xmlns:xlink="http://www.w3.org/1999/xlink" x="0px" y="0px"
	 viewBox="0 0 54 54" enable-background="new 0 0 54 54" xml:space="preserve">
<g>
	<g>
		<path opacity="0.6" fill="#FFFFFF" d="M24.837,15.694c0-1.194,0.962-2.162,2.153-2.179V0.083c-0.01-0.008-0.019-0.016-0.027-0.023
			c0,0-8.295,8.404-5.349,28.049c0,0,2.319,3.957,5.376,5.156V17.874C25.799,17.857,24.837,16.89,24.837,15.694z"/>
	</g>
	<g>
		<path fill="#FFFFFF" d="M27.019,0.061C27.01,0.068,27,0.077,26.991,0.084v13.433c0.014,0,0.028-0.004,0.042-0.004
			c1.205,0,2.183,0.978,2.183,2.182c0,1.207-0.978,2.184-2.183,2.184c-0.014,0-0.028-0.004-0.042-0.005v15.393
			c3.057-1.198,5.375-5.156,5.375-5.156C35.313,8.465,27.019,0.061,27.019,0.061z"/>
	</g>
	<g>
		<path fill="#FFFFFF" d="M27.019,12.838c-1.588,0-2.874,1.286-2.874,2.873c0,1.589,1.286,2.875,2.874,2.875
			c1.587,0,2.874-1.286,2.874-2.875C29.892,14.124,28.605,12.838,27.019,12.838z M27.019,17.894c-1.206,0-2.183-0.977-2.183-2.183
			c0-1.204,0.978-2.182,2.183-2.182s2.183,0.978,2.183,2.182C29.201,16.917,28.224,17.894,27.019,17.894z"/>
	</g>
	<g>
		<path opacity="0.6" fill="#FFFFFF" d="M33.111,29.117c0,0-0.655,1.185-1.737,2.364c0.027-0.027,3.848,6.002,1.465,10.605
			C38.26,34.411,33.111,29.117,33.111,29.117z"/>
		<path fill="#FFFFFF" d="M31.374,31.481c-1.199,1.31-2.246,1.983-2.246,1.983c3.274,3.857,3.71,8.622,3.71,8.622
			C35.222,37.483,31.401,31.454,31.374,31.481z"/>
	</g>
	<path fill="#FFFFFF" d="M28.292,33.866c0,0-0.948,0.644-1.289,0.644s-1.288-0.644-1.288-0.644s-2.05,4.273,1.261,8.238
		c0,0,0.005-0.008,0.006-0.008c0.001,0,0.007,0.008,0.007,0.008C30.299,38.14,28.292,33.866,28.292,33.866z"/>
	<g>
		<path opacity="0.6" fill="#FFFFFF" d="M22.625,31.501c0.091,0.09,0.089,0.078,0-0.02c-1.083-1.18-1.738-2.364-1.738-2.364
			s-5.134,5.282,0.255,12.944C18.805,37.465,22.599,31.472,22.625,31.501z"/>
		<path fill="#FFFFFF" d="M24.862,33.477c-0.014-0.01-0.104-0.077-0.251-0.195c-0.341-0.249-0.985-0.759-1.722-1.523
			c-0.088-0.085-0.173-0.167-0.264-0.257c-0.027-0.029-3.82,5.964-1.483,10.561c0.006,0.009,0.012,0.017,0.018,0.025
			C21.16,42.087,21.596,37.331,24.862,33.477z"/>
	</g>
	<path fill="#FFFFFF" d="M24.217,47.071c-0.095,0-0.189-0.005-0.282-0.014l0.025-0.219c0.136,0.017,0.277,0.019,0.416,0.008
		l0.015,0.219C24.333,47.069,24.275,47.071,24.217,47.071z M24.841,46.992l-0.057-0.212c0.134-0.036,0.265-0.084,0.391-0.144
		l0.094,0.197C25.131,46.899,24.987,46.953,24.841,46.992z M23.489,46.961c-0.145-0.045-0.287-0.104-0.421-0.176l0.104-0.193
		c0.121,0.063,0.25,0.12,0.382,0.16L23.489,46.961z M25.661,46.601l-0.13-0.176c0.112-0.084,0.216-0.176,0.311-0.277l0.16,0.146
		C25.897,46.407,25.783,46.508,25.661,46.601z M22.688,46.532c-0.119-0.095-0.229-0.202-0.327-0.319l0.166-0.14
		c0.09,0.105,0.19,0.204,0.297,0.289L22.688,46.532z M26.28,45.935l-0.185-0.118c0.073-0.115,0.137-0.24,0.187-0.369l0.203,0.079
		C26.43,45.667,26.36,45.804,26.28,45.935z M22.099,45.841c-0.076-0.134-0.139-0.272-0.188-0.417l0.208-0.07
		c0.043,0.131,0.101,0.259,0.17,0.378L22.099,45.841z M26.613,45.087l-0.215-0.04c0.026-0.134,0.039-0.272,0.039-0.413h0.218
		C26.654,44.786,26.64,44.939,26.613,45.087z M21.804,44.98c-0.016-0.113-0.025-0.23-0.025-0.347c0-0.037,0.001-0.071,0.003-0.108
		L22,44.535c-0.001,0.033-0.002,0.065-0.002,0.099c0,0.104,0.008,0.212,0.022,0.316L21.804,44.98z M26.425,44.416
		c-0.014-0.14-0.04-0.275-0.078-0.408l0.209-0.061c0.042,0.145,0.071,0.296,0.086,0.447L26.425,44.416z M22.057,44.123l-0.212-0.048
		c0.035-0.148,0.084-0.295,0.146-0.435l0.199,0.089C22.134,43.858,22.088,43.989,22.057,44.123z M26.193,43.622
		c-0.063-0.122-0.138-0.24-0.224-0.35l0.172-0.134c0.094,0.12,0.177,0.251,0.246,0.385L26.193,43.622z M22.394,43.369l-0.179-0.126
		c0.087-0.125,0.186-0.243,0.294-0.35l0.152,0.158C22.563,43.146,22.473,43.255,22.394,43.369z M25.685,42.969
		c-0.104-0.09-0.216-0.174-0.335-0.243l0.112-0.188c0.13,0.078,0.254,0.169,0.368,0.269L25.685,42.969z M22.984,42.789l-0.122-0.182
		c0.126-0.084,0.26-0.157,0.401-0.218l0.085,0.201C23.222,42.646,23.099,42.712,22.984,42.789z M24.974,42.548
		c-0.13-0.048-0.266-0.083-0.402-0.105l0.034-0.215c0.15,0.023,0.299,0.062,0.442,0.115L24.974,42.548z M23.745,42.465l-0.047-0.214
		c0.15-0.032,0.303-0.05,0.454-0.055l0.004,0.222C24.02,42.42,23.881,42.435,23.745,42.465z"/>
	<circle fill="#FFFFFF" cx="24.217" cy="44.634" r="1.564"/>
	<path fill="#FFFFFF" d="M29.755,47.938l-0.016-0.216c0.139-0.012,0.275-0.035,0.405-0.074l0.062,0.211
		C30.061,47.9,29.909,47.929,29.755,47.938z M29.295,47.925c-0.152-0.023-0.302-0.062-0.444-0.115l0.076-0.205
		c0.127,0.048,0.262,0.083,0.399,0.103L29.295,47.925z M30.63,47.684l-0.105-0.19c0.121-0.068,0.235-0.146,0.339-0.236l0.144,0.163
		C30.891,47.521,30.764,47.609,30.63,47.684z M28.44,47.604c-0.129-0.083-0.25-0.179-0.357-0.288l0.155-0.154
		c0.096,0.097,0.205,0.186,0.32,0.259L28.44,47.604z M31.32,47.084l-0.176-0.13c0.084-0.11,0.155-0.231,0.212-0.354l0.199,0.089
		C31.49,46.828,31.411,46.961,31.32,47.084z M27.795,46.959c-0.083-0.131-0.152-0.267-0.206-0.411l0.205-0.076
		c0.048,0.129,0.109,0.251,0.185,0.368L27.795,46.959z M31.699,46.254l-0.213-0.047c0.03-0.134,0.043-0.27,0.043-0.409h0.218
		C31.747,45.951,31.731,46.105,31.699,46.254z M27.477,46.103c-0.015-0.099-0.021-0.201-0.022-0.305c0-0.05,0.002-0.102,0.005-0.152
		l0.218,0.015c-0.003,0.045-0.005,0.092-0.005,0.138c0,0.093,0.006,0.185,0.019,0.275L27.477,46.103z M31.524,45.662
		c-0.009-0.139-0.034-0.274-0.072-0.406l0.209-0.062c0.042,0.146,0.07,0.3,0.081,0.451L31.524,45.662z M27.751,45.255l-0.212-0.061
		c0.044-0.147,0.103-0.291,0.178-0.425l0.191,0.105C27.843,44.995,27.789,45.123,27.751,45.255z M31.294,44.876
		c-0.065-0.12-0.145-0.234-0.235-0.339l0.165-0.143c0.102,0.114,0.188,0.241,0.262,0.375L31.294,44.876z M28.144,44.537
		l-0.165-0.145c0.101-0.116,0.213-0.222,0.336-0.312l0.13,0.175C28.336,44.336,28.235,44.431,28.144,44.537z M30.757,44.256
		c-0.111-0.084-0.23-0.154-0.354-0.211l0.09-0.2c0.139,0.063,0.271,0.145,0.396,0.236L30.757,44.256z M28.8,44.045l-0.09-0.2
		c0.14-0.062,0.286-0.112,0.436-0.146l0.045,0.214C29.058,43.941,28.927,43.987,28.8,44.045z M30.012,43.913
		c-0.134-0.028-0.271-0.044-0.411-0.044v-0.216c0.154,0,0.308,0.014,0.456,0.046L30.012,43.913z"/>
	<circle fill="#FFFFFF" cx="29.601" cy="45.798" r="1.382"/>
	<path fill="#FFFFFF" d="M26.11,51.147c-0.112,0-0.222-0.011-0.331-0.029l0.039-0.216c0.132,0.023,0.27,0.029,0.407,0.021
		l0.016,0.218C26.198,51.145,26.154,51.146,26.11,51.147z M26.695,51.053l-0.069-0.208c0.129-0.045,0.252-0.103,0.368-0.176
		l0.119,0.183C26.981,50.936,26.841,51.003,26.695,51.053z M25.337,50.979c-0.141-0.064-0.273-0.146-0.393-0.242l0.137-0.172
		c0.106,0.086,0.223,0.159,0.347,0.216L25.337,50.979z M27.466,50.554l-0.159-0.147c0.094-0.1,0.173-0.212,0.239-0.331l0.191,0.104
		C27.664,50.314,27.572,50.442,27.466,50.554z M24.623,50.402c-0.092-0.124-0.169-0.258-0.229-0.402l0.202-0.082
		c0.052,0.126,0.121,0.243,0.203,0.354L24.623,50.402z M27.905,49.75l-0.21-0.055c0.034-0.132,0.051-0.268,0.051-0.405h0.219
		C27.965,49.444,27.945,49.601,27.905,49.75z M24.272,49.554c-0.012-0.085-0.02-0.174-0.02-0.263c0-0.066,0.004-0.134,0.011-0.201
		l0.217,0.024c-0.006,0.058-0.008,0.117-0.008,0.176c0,0.08,0.005,0.158,0.016,0.234L24.272,49.554z M27.744,49.233
		c-0.004-0.139-0.025-0.271-0.064-0.403l0.209-0.062c0.044,0.147,0.069,0.304,0.073,0.458L27.744,49.233z M24.574,48.719
		l-0.204-0.076c0.054-0.146,0.126-0.281,0.215-0.411l0.179,0.127C24.686,48.469,24.622,48.59,24.574,48.719z M27.517,48.456
		c-0.07-0.117-0.154-0.226-0.251-0.322l0.154-0.154c0.111,0.107,0.206,0.233,0.285,0.364L27.517,48.456z M25.037,48.054
		l-0.144-0.166c0.117-0.102,0.246-0.188,0.385-0.256l0.098,0.194C25.254,47.888,25.14,47.965,25.037,48.054z M26.944,47.882
		c-0.118-0.069-0.244-0.125-0.374-0.163l0.061-0.21c0.148,0.044,0.292,0.106,0.425,0.185L26.944,47.882z M25.761,47.689
		l-0.047-0.212c0.151-0.032,0.306-0.047,0.461-0.04l-0.009,0.216l-0.059-0.001C25.992,47.652,25.874,47.667,25.761,47.689z"/>
	<circle opacity="0.6" fill="#FFFFFF" cx="26.109" cy="49.29" r="1.092"/>
	<path fill="#FFFFFF" d="M29.965,42.924c-0.087,0-0.174-0.008-0.259-0.025l0.041-0.213c0.13,0.025,0.268,0.026,0.396,0.006
		l0.036,0.216C30.108,42.918,30.038,42.924,29.965,42.924z M30.624,42.751l-0.106-0.188c0.116-0.067,0.218-0.152,0.305-0.254
		l0.165,0.144C30.886,42.571,30.764,42.673,30.624,42.751z M29.265,42.728c-0.134-0.081-0.254-0.186-0.354-0.31l0.17-0.138
		c0.084,0.104,0.183,0.192,0.297,0.262L29.265,42.728z M31.229,42.044l-0.205-0.076c0.046-0.125,0.069-0.254,0.069-0.39h0.219
		C31.312,41.738,31.284,41.895,31.229,42.044z M28.687,42.002c-0.045-0.136-0.067-0.278-0.067-0.424v-0.045l0.219,0.005l-0.001,0.04
		c0.001,0.121,0.02,0.241,0.057,0.354L28.687,42.002z M31.048,41.261c-0.038-0.128-0.098-0.248-0.177-0.354l0.174-0.133
		c0.096,0.129,0.167,0.272,0.211,0.426L31.048,41.261z M28.919,41.151l-0.202-0.081c0.06-0.146,0.145-0.28,0.252-0.399l0.162,0.146
		C29.041,40.918,28.97,41.031,28.919,41.151z M30.583,40.633c-0.111-0.071-0.234-0.125-0.363-0.154l0.048-0.214
		c0.155,0.036,0.301,0.101,0.435,0.188L30.583,40.633z M29.446,40.575l-0.101-0.191c0.142-0.074,0.293-0.121,0.452-0.141
		l0.027,0.216C29.69,40.474,29.563,40.516,29.446,40.575z"/>
	<circle opacity="0.6" fill="#FFFFFF" cx="29.965" cy="41.578" r="0.636"/>
	<path fill="#FFFFFF" d="M28.206,53.938l-0.029-0.217c0.128-0.017,0.25-0.065,0.355-0.137l0.125,0.178
		C28.524,53.856,28.368,53.918,28.206,53.938z M27.725,53.887c-0.152-0.056-0.292-0.149-0.402-0.271l0.162-0.146
		c0.086,0.093,0.195,0.167,0.315,0.212L27.725,53.887z M28.977,53.399l-0.193-0.102c0.06-0.115,0.09-0.238,0.09-0.37h0.218
		C29.092,53.093,29.052,53.255,28.977,53.399z M27.089,53.193c-0.023-0.086-0.036-0.176-0.034-0.266
		c0-0.073,0.008-0.148,0.023-0.219l0.213,0.047c-0.011,0.057-0.018,0.112-0.018,0.172c0,0.071,0.009,0.141,0.027,0.208
		L27.089,53.193z M28.873,52.893c-0.006-0.13-0.042-0.254-0.107-0.365l0.189-0.11c0.081,0.141,0.128,0.302,0.136,0.465
		L28.873,52.893z M27.458,52.415l-0.167-0.141c0.105-0.127,0.24-0.226,0.39-0.288l0.084,0.203
		C27.647,52.237,27.542,52.316,27.458,52.415z M28.503,52.252c-0.108-0.067-0.234-0.109-0.362-0.12l0.019-0.218
		c0.162,0.014,0.321,0.067,0.459,0.152L28.503,52.252z"/>
	<circle fill="#FFFFFF" cx="28.073" cy="52.928" r="0.527"/>
</g>
</svg>
